<?xml version="1.0" standalone="no"?>
<!DOCTYPE svg PUBLIC "-//W3C//DTD SVG 20010904//EN"
 "http://www.w3.org/TR/2001/REC-SVG-20010904/DTD/svg10.dtd">
<svg version="1.0" xmlns="http://www.w3.org/2000/svg"
 width="48.000000pt" height="48.000000pt" viewBox="0 0 48.000000 48.000000"
 preserveAspectRatio="xMidYMid meet">

<g transform="translate(0.000000,48.000000) scale(0.100000,-0.100000)"
fill="#ff9e5e" stroke="none">
<path d="M0 240 l0 -240 240 0 240 0 0 240 0 240 -240 0 -240 0 0 -240z m264
165 l16 -25 -40 0 -40 0 16 25 c9 14 20 25 24 25 4 0 15 -11 24 -25z m-141
-94 c-10 -17 -21 -31 -24 -31 -5 0 -29 45 -29 55 0 3 62 12 68 9 1 -1 -5 -15
-15 -33z m285 23 c2 -1 -4 -16 -13 -34 l-16 -32 -20 38 c-10 21 -19 39 -19 41
0 3 63 -9 68 -13z m-119 -8 c47 -25 63 -83 37 -135 -35 -66 -137 -66 -172 0
-47 91 44 182 135 135z m-149 -193 c0 -3 -63 9 -68 13 -2 1 4 16 13 34 l16 32
20 -38 c10 -21 19 -39 19 -41z m255 46 c9 -17 15 -32 13 -33 -8 -8 -69 -15
-66 -8 3 4 11 22 18 40 8 17 16 32 17 32 1 0 10 -14 18 -31z m-115 -79 c0 -3
-9 -16 -20 -30 l-20 -25 -20 25 c-11 14 -20 27 -20 30 0 3 18 5 40 5 22 0 40
-2 40 -5z"/>
<path d="M200 280 c-11 -11 -20 -29 -20 -40 0 -26 34 -60 60 -60 26 0 60 34
60 60 0 11 -9 29 -20 40 -11 11 -29 20 -40 20 -11 0 -29 -9 -40 -20z"/>
</g>
</svg>
