<?xml version="1.0" standalone="no"?>
<!DOCTYPE svg PUBLIC "-//W3C//DTD SVG 20010904//EN"
 "http://www.w3.org/TR/2001/REC-SVG-20010904/DTD/svg10.dtd">
<svg version="1.0" xmlns="http://www.w3.org/2000/svg"
 width="48.000000pt" height="48.000000pt" viewBox="0 0 48.000000 48.000000"
 preserveAspectRatio="xMidYMid meet">

<g transform="translate(0.000000,48.000000) scale(0.100000,-0.100000)"
fill="#000000" stroke="none">
<path d="M0 240 l0 -240 240 0 240 0 0 240 0 240 -240 0 -240 0 0 -240z m284
185 c5 -20 13 -25 39 -25 l32 0 -24 -19 c-20 -15 -23 -24 -18 -50 l7 -31 -25
16 c-23 15 -27 15 -50 0 l-25 -16 7 31 c5 26 2 35 -18 50 l-24 19 32 0 c26 0
34 5 39 25 3 14 10 25 14 25 4 0 11 -11 14 -25z m-124 -63 c0 -109 95 -202
208 -202 46 0 49 -26 7 -66 -65 -61 -171 -69 -246 -20 -100 67 -117 214 -34
302 29 31 37 35 50 24 8 -7 15 -24 15 -38z m220 -87 c0 -9 9 -15 23 -15 19 -1
20 -2 7 -13 -9 -7 -14 -21 -12 -32 4 -17 2 -18 -12 -6 -13 11 -19 11 -32 0
-14 -12 -16 -11 -12 6 2 11 -3 25 -12 32 -13 11 -12 12 8 13 13 0 22 6 22 15
0 8 5 15 10 15 6 0 10 -7 10 -15z"/>
<path d="M95 305 c-58 -134 76 -268 210 -210 l40 18 -50 16 c-68 21 -145 98
-166 166 l-16 50 -18 -40z"/>
</g>
</svg>
